HIERARCHY
ROOT Hips
{
	OFFSET 0.00000 0.00000 0.00000
	CHANNELS 6 Xposition Yposition Zposition Zrotation Yrotation Xrotation 
	JOINT LHipJoint
	{
		OFFSET 0 0 0
		CHANNELS 3 Zrotation Yrotation Xrotation
		JOINT LeftHip
		{
			OFFSET 1.77779 -1.88989 0.48267
			CHANNELS 3 Zrotation Yrotation Xrotation
			JOINT LeftKnee
			{
				OFFSET 2.53442 -6.96327 0.00000
				CHANNELS 3 Zrotation Yrotation Xrotation
				JOINT LeftAnkle
				{
					OFFSET 2.71068 -7.44755 0.00000
					CHANNELS 3 Zrotation Yrotation Xrotation
					JOINT LeftToe
					{
						OFFSET 0.17992 -0.49431 2.22524
						CHANNELS 3 Zrotation Yrotation Xrotation
						End Site
						{
							OFFSET 0.00000 -0.00000 1.14687
						}
					}
				}
			}
		}
	}
	JOINT RHipJoint
	{
		OFFSET 0 0 0
		CHANNELS 3 Zrotation Yrotation Xrotation
		JOINT RightHip
		{
			OFFSET -1.58469 -1.88989 0.48267
			CHANNELS 3 Zrotation Yrotation Xrotation
			JOINT RightKnee
			{
				OFFSET -2.60386 -7.15404 0.00000
				CHANNELS 3 Zrotation Yrotation Xrotation
				JOINT RightAnkle
				{
					OFFSET -2.73334 -7.50979 0.00000
					CHANNELS 3 Zrotation Yrotation Xrotation
					JOINT RightToe
					{
						OFFSET -0.25618 -0.70384 2.21822
						CHANNELS 3 Zrotation Yrotation Xrotation
						End Site
						{
							OFFSET -0.00000 -0.00000 1.16381
						}
					}
				}
			}
		}
	}
	JOINT lowerback
	{
		OFFSET 0 0 0
		CHANNELS 3 Zrotation Yrotation Xrotation
		JOINT Chest
		{
			OFFSET 0.03410 2.01612 -0.22230
			CHANNELS 3 Zrotation Yrotation Xrotation
			JOINT Chest2
			{
				OFFSET 0.03465 2.03012 0.00937
				CHANNELS 3 Zrotation Yrotation Xrotation
				JOINT lowerneck
				{
					OFFSET 0 0 0
					CHANNELS 3 Zrotation Yrotation Xrotation
					JOINT Neck
					{
						OFFSET -0.00219 1.70459 0.20857
						CHANNELS 3 Zrotation Yrotation Xrotation
						JOINT Head
						{
							OFFSET 0.02518 1.72339 -0.22179
							CHANNELS 3 Zrotation Yrotation Xrotation
							End Site
							{
								OFFSET 0.00282 1.74122 -0.09823
							}
						}
					}
				}
				JOINT LeftCollar
				{
					OFFSET 0 0 0
					CHANNELS 3 Zrotation Yrotation Xrotation
					JOINT LeftShoulder
					{
						OFFSET 3.36358 1.00547 -0.37661
CHANNELS 3 Zrotation Xrotation Yrotation
						JOINT LeftElbow
						{
OFFSET 0 -5.065070 0.000000
CHANNELS 3 Zrotation Xrotation Yrotation
							JOINT LeftWrist
							{
OFFSET 0 -3.601960 0.000000
CHANNELS 3 Zrotation Xrotation Yrotation
								JOINT lhand
								{
									OFFSET 0 0 0
CHANNELS 3 Zrotation Xrotation Yrotation
									JOINT LFingers
									{
OFFSET 0 -0.450350 0.000000
CHANNELS 3 Zrotation Xrotation Yrotation
										End Site
										{
OFFSET 0 -0.363080 0.000000
										}
									}
								}
								JOINT LThumb
								{
OFFSET 0 0.000000 0.000000
CHANNELS 3 Zrotation Xrotation Yrotation
									End Site
									{
OFFSET 0 -0.368620 0.368620
									}
								}
							}
						}
					}
				}
				JOINT RightCollar
				{
					OFFSET 0 0 0
					CHANNELS 3 Zrotation Yrotation Xrotation
					JOINT RightShoulder
					{
						OFFSET -3.50159 0.80383 -0.71526
CHANNELS 3 Zrotation Xrotation Yrotation
						JOINT RightElbow
						{
OFFSET 0 -5.363940 0.000000
CHANNELS 3 Zrotation Xrotation Yrotation
							JOINT RightWrist
							{
OFFSET 0 -3.580350 0.000000
CHANNELS 3 Zrotation Xrotation Yrotation
								JOINT rhand
								{
									OFFSET 0 0 0
CHANNELS 3 Zrotation Xrotation Yrotation
									JOINT RFingers
									{
OFFSET 0 -0.663750 0.000000
CHANNELS 3 Zrotation Xrotation Yrotation
										End Site
										{
OFFSET 0 -0.535130 0.000000
										}
									}
								}
								JOINT RThumb
								{
OFFSET 0 0.000000 0.000000
CHANNELS 3 Zrotation Xrotation Yrotation
									End Site
									{
OFFSET 0 -0.543300 0.543300
									}
								}
							}
						}
					}
				}
			}
		}
	}
}
MOTION
Frames: 6
Frame Time: 0.008333333333333333
0.891200 17.614000 -27.753900 2.700700 2.478100 -2.557100 0.000000 0.000000 0.000000 -26.637800 1.456400 19.220000 0.795700 5.693800 15.898500 0.270700 -9.429500 -10.627800 0.276500 -3.381900 -9.343900 0.000000 0.000000 0.000000 16.589200 14.599800 -25.451400 -1.454300 -7.622500 21.573200 0.003200 -8.499900 -12.053200 -0.000000 0.012500 -0.034300 -5.642200 -2.062100 9.200300 1.719200 -3.252300 0.407800 5.385600 -1.484700 -4.319600 -1.995600 -2.221500 -17.007500 -0.288100 -2.488600 21.172500 -0.094300 -1.356600 9.522900 -0.000000 0.000000 0.000000 8.538900 -6.470500 -26.420200 16.458400 -26.138300 3.845700 35.433000 8.519300 -21.392700 0.000000 0.000000 0.000000 -7.125000 0.000000 0.000000 7.369300 55.506500 -1.907900 -0.000000 0.000000 0.000000 -0.548400 0.910200 7.114500 -13.253700 -21.657800 -2.546200 -18.815100 -1.704000 -21.482500 0.000000 0.000000 0.000000 7.125000 0.000000 -0.000000 6.255400 7.514600 5.416800
0.876478 17.637540 -27.599786 2.150954 2.540542 -2.551126 0.000000 0.000000 0.000000 -26.088978 1.061621 19.152437 0.914255 6.086801 17.038174 0.236350 -9.317631 -10.130539 0.408425 -4.077510 -11.298237 0.000000 0.000000 0.000000 17.192356 14.834918 -25.138194 -1.480756 -7.688356 21.771478 0.074319 -8.989907 -11.327435 -0.000142 -0.065019 0.178558 -5.124813 -2.132721 9.227965 1.908589 -3.286366 0.294366 5.302320 -1.502480 -4.467029 -2.332773 -2.467001 -16.674523 -0.246780 -2.760344 21.437417 -0.057745 -1.507656 9.563580 0.000000 0.000000 0.000000 8.336568 -6.157721 -26.359536 16.553414 -26.265247 3.887660 35.439827 8.369595 -21.302664 0.000000 0.000000 0.000000 -7.125000 0.000000 0.000000 7.384733 55.404303 -1.893534 0.000000 0.000000 0.000000 -0.615251 1.152074 6.909039 -13.178101 -21.547566 -2.518322 -18.749884 -1.469949 -21.343961 0.000000 0.000000 0.000000 7.125000 0.000000 0.000000 6.287190 7.666580 5.425832
0.864545 17.659011 -27.445123 1.647879 2.517327 -2.561456 0.000000 0.000000 0.000000 -25.631262 0.689650 18.984773 1.061361 6.539779 18.362552 0.222865 -9.071912 -9.851475 0.684969 -5.193084 -14.482560 0.000000 0.000000 0.000000 17.803622 14.953588 -24.843403 -1.512196 -7.765784 22.004983 0.113379 -9.117519 -10.661816 -0.000876 -0.171048 0.469892 -4.566371 -2.100663 9.164736 2.014179 -3.177713 0.302617 5.081136 -1.459353 -4.459363 -2.422057 -2.670941 -16.701533 -0.236251 -3.023345 21.668670 -0.076605 -1.636326 9.654648 0.000000 0.000000 0.000000 8.240208 -6.135279 -26.486066 16.585749 -26.308437 3.901955 35.262332 7.955487 -20.825314 0.000000 0.000000 0.000000 -7.125000 0.000000 0.000000 7.225938 54.813380 -1.751443 0.000000 0.000000 0.000000 -0.540355 1.119196 6.319347 -13.038090 -21.342679 -2.467297 -18.790684 -1.150241 -21.253995 0.000000 0.000000 0.000000 7.125000 0.000000 0.000000 6.255033 7.753600 5.387094
0.855532 17.677998 -27.290232 1.191117 2.426646 -2.588396 0.000000 0.000000 0.000000 -25.260217 0.335439 18.758396 1.228980 7.026689 19.796226 0.210385 -8.832992 -9.571723 0.996044 -6.351231 -17.807078 0.000000 0.000000 0.000000 18.410830 14.969460 -24.564170 -1.548473 -7.854239 22.272190 0.123774 -8.902584 -10.032223 -0.002294 -0.300366 0.825279 -3.997112 -2.012685 9.054059 2.072525 -2.992905 0.377554 4.789962 -1.383635 -4.366813 -2.350863 -2.812084 -16.949150 -0.257101 -3.228080 21.859530 -0.128042 -1.727452 9.768740 0.000000 0.000000 0.000000 8.182242 -6.260697 -26.677628 16.571337 -26.289187 3.895609 35.037383 7.479833 -20.224971 0.000000 0.000000 0.000000 -7.125000 0.000000 0.000000 7.023773 54.069586 -1.571751 0.000000 0.000000 0.000000 -0.402576 0.922685 5.496195 -12.844006 -21.057937 -2.397107 -18.892102 -0.770666 -21.255246 0.000000 0.000000 0.000000 7.125000 0.000000 0.000000 6.190756 7.738010 5.332893
0.850909 17.692364 -27.135976 0.796622 2.297495 -2.638961 0.000000 0.000000 0.000000 -24.994589 -0.009415 18.574128 1.400874 7.482986 21.156368 0.140546 -9.019322 -8.643697 1.028758 -6.451509 -18.100371 0.000000 0.000000 0.000000 18.976507 14.885114 -24.297760 -1.590931 -7.956151 22.580987 0.104999 -8.277879 -9.380564 -0.004926 -0.446087 1.225605 -3.502482 -1.986514 9.006978 2.174367 -2.900806 0.381039 4.603916 -1.347080 -4.365817 -2.318718 -2.804546 -17.086266 -0.322601 -3.206673 21.975239 -0.156490 -1.722402 9.833387 0.000000 0.000000 0.000000 7.976923 -6.166963 -26.596837 16.540116 -26.247583 3.881812 35.152310 7.519943 -20.238128 0.000000 0.000000 0.000000 -7.125000 0.000000 0.000000 7.149297 54.109981 -1.607168 0.000000 0.000000 0.000000 -0.412035 0.831013 4.799660 -12.606541 -20.707749 -2.312476 -18.942170 -0.385488 -21.507361 0.000000 0.000000 0.000000 7.125000 0.000000 0.000000 6.176674 7.470746 5.353091
0.845564 17.703005 -26.986501 0.415970 2.152055 -2.721270 0.000000 0.000000 0.000000 -24.642904 -0.143128 18.273004 1.595505 7.958684 22.593283 0.012836 -9.875655 -7.131949 0.876293 -5.947438 -16.638104 0.000000 0.000000 0.000000 19.552858 14.753680 -24.011281 -1.639393 -8.070295 22.927975 0.082054 -7.592300 -8.801119 -0.005278 -0.467560 1.284648 -3.108531 -1.976464 9.116280 2.334359 -2.841396 0.307306 4.550458 -1.318809 -4.521315 -2.367793 -2.757536 -17.067001 -0.380429 -3.114164 22.120191 -0.157196 -1.691113 9.880522 0.000000 0.000000 0.000000 7.688104 -5.884214 -26.485749 16.503391 -26.198473 3.865569 35.289419 7.613646 -20.453030 0.000000 0.000000 0.000000 -7.125000 0.000000 0.000000 7.284883 54.388980 -1.688060 0.000000 0.000000 0.000000 -0.556362 0.920573 4.219425 -12.372189 -20.360063 -2.230402 -18.694427 0.019203 -22.022763 0.000000 0.000000 0.000000 7.125000 0.000000 0.000000 6.369786 6.975775 5.585763
